<svg width="13" height="13" viewBox="0 0 13 13" fill="none" xmlns="http://www.w3.org/2000/svg">
<path fill-rule="evenodd" clip-rule="evenodd" d="M0.338455 2.16367C-0.423757 1.3253 0.184964 0 1.33224 0H11.6678C12.815 0 13.4238 1.3253 12.6615 2.16367L8.49446 6.74713V12.35C8.49446 12.5753 8.37516 12.7845 8.17916 12.9029C7.98316 13.0214 7.73841 13.0321 7.53233 12.9314L4.87304 11.6314C4.64781 11.5213 4.50554 11.2962 4.50554 11.05V6.74713L0.338455 2.16367ZM11.6678 1.3H1.33224L5.66725 6.06816C5.77543 6.18715 5.83518 6.34081 5.83518 6.5V10.6483L7.16482 11.2983V6.5C7.16482 6.34081 7.22457 6.18715 7.33275 6.06816L11.6678 1.3Z" fill="#ED1F28"/>
</svg>
