<svg width="13" height="7" viewBox="0 0 13 7" fill="none" xmlns="http://www.w3.org/2000/svg">
<path d="M12.74 0.246575C12.9133 0.410959 13 0.609589 13 0.842466C13 1.07534 12.9133 1.26941 12.74 1.42466L7.12111 6.75342C6.94778 6.91781 6.74074 7 6.5 7C6.25926 7 6.05222 6.91781 5.87889 6.75342L0.26 1.42466C0.0866667 1.26941 0 1.07534 0 0.842466C0 0.609589 0.0866667 0.410959 0.26 0.246575C0.433333 0.0821918 0.64037 0 0.881111 0C1.12185 0 1.32889 0.0821918 1.50222 0.246575L6.5 4.9863L11.4978 0.246575C11.6711 0.0821918 11.8781 0 12.1189 0C12.3596 0 12.5667 0.0821918 12.74 0.246575Z" fill="#263238"/>
</svg>
