<svg width="20" height="20" viewBox="0 0 20 20" fill="none" xmlns="http://www.w3.org/2000/svg">
<g clip-path="url(#clip0_2552_5640)">
<path d="M17.8 6.96562C17.8 6.06562 17.6 5.56563 17.4 5.06563C17.2 4.46563 16.9 4.06563 16.4 3.66563C15.9 3.16563 15.5 2.96563 15 2.66563C14.5 2.46563 13.9 2.36563 13.1 2.26562H10C7.9 2.26562 7.5 2.26562 6.7 2.36562C5.8 2.36562 5.3 2.56563 4.8 2.76562C4.2 2.96562 3.8 3.16563 3.4 3.66563C2.9 4.06563 2.7 4.56563 2.4 5.06563C2.2 5.66563 2.1 6.16563 2.1 7.06563C2 7.76562 2 8.06563 2 10.2656C2 12.4656 2 12.7656 2.1 13.5656C2.1 14.4656 2.3 14.9656 2.5 15.4656C2.7 16.0656 3 16.4656 3.5 16.8656C4 17.2656 4.4 17.5656 4.9 17.8656C5.3 18.0656 6 18.1656 6.8 18.2656H10C12.1 18.2656 12.4 18.2656 13.2 18.1656C14.1 18.1656 14.6 17.9656 15.1 17.7656C15.7 17.5656 16.1 17.2656 16.5 16.7656C17 16.2656 17.2 15.8656 17.5 15.3656C17.7 14.8656 17.8 14.2656 17.9 13.4656C17.9 12.5656 18 12.4656 18 10.2656C17.9 8.16563 17.9 7.76562 17.8 6.96562ZM16.4 13.4656C16.4 14.2656 16.2 14.6656 16.2 14.9656C16 15.3656 15.9 15.5656 15.6 15.8656C15.4 16.0656 15 16.3656 14.7 16.4656C14.4 16.5656 14 16.6656 13.2 16.6656C12.3 16.6656 12.1 16.7656 10 16.7656C7.9 16.7656 7.6 16.7656 6.8 16.6656C6 16.6656 5.6 16.4656 5.3 16.4656C4.8 16.3656 4.6 16.2656 4.3 15.8656C4.1 15.6656 3.8 15.2656 3.7 14.9656C3.5 14.6656 3.4 14.2656 3.4 13.4656C3.4 12.5656 3.3 12.3656 3.3 10.2656C3.3 8.06563 3.3 7.86563 3.4 7.06563C3.4 6.26562 3.6 5.86563 3.6 5.56563C3.8 5.16563 3.9 4.96563 4.2 4.66563C4.4 4.46563 4.8 4.16562 5.1 4.06562C5.6 3.96562 6 3.76562 6.8 3.76562C7.7 3.76562 8 3.66563 10 3.66563C12 3.66563 12.3 3.66562 13.1 3.76562C13.9 3.76562 14.3 3.96563 14.6 3.96563C15 4.16563 15.2 4.26563 15.5 4.56563C15.8 4.86563 16 5.26563 16.1 5.56563C16.3 5.86563 16.4 6.26562 16.4 7.06563C16.4 7.96563 16.5 8.16563 16.5 10.2656C16.5 12.4656 16.5 12.6656 16.4 13.4656ZM10 6.16563C7.8 6.16563 5.9 7.96562 5.9 10.2656C5.9 12.5656 7.7 14.3656 10 14.3656C12.3 14.3656 14 12.4656 14 10.2656C14 8.06563 12.2 6.16563 10 6.16563ZM10 12.8656C8.6 12.8656 7.4 11.6656 7.4 10.2656C7.4 8.86562 8.5 7.66563 10 7.66563C11.5 7.66563 12.6 8.86562 12.6 10.2656C12.6 11.6656 11.4 12.8656 10 12.8656ZM15.1 6.06563C15.1 6.66563 14.7 7.06563 14.1 7.06563C13.5 7.06563 13.1 6.66563 13.1 6.06563C13.1 5.46563 13.5 5.06563 14.1 5.06563C14.7 5.06563 15.1 5.46563 15.1 6.06563Z" fill="white"/>
</g>
<defs>
<clipPath id="clip0_2552_5640">
<rect width="20" height="20" fill="white"/>
</clipPath>
</defs>
</svg>
