<svg width="20" height="20" viewBox="0 0 20 20" fill="none" xmlns="http://www.w3.org/2000/svg">
<path fill-rule="evenodd" clip-rule="evenodd" d="M0.0124048 3.6023C-0.166392 1.50023 1.61623 0 3.5121 0H5.88643C7.01964 0 8.04156 0.681821 8.47664 1.72819L9.64644 4.54152C10.0469 5.50457 9.87995 6.61027 9.21307 7.41219L7.96069 8.91817C8.7688 10.1458 9.78671 11.2527 10.946 12.169L12.5832 10.8019C13.3865 10.1311 14.4964 9.96319 15.4621 10.3664L18.2643 11.5364C19.3086 11.9725 19.9886 12.9933 19.9886 14.125C19.9886 14.5154 19.9916 14.906 19.9945 15.3009L19.9946 15.3025C19.9975 15.6956 20.0005 16.093 20.0005 16.4913C20.0005 18.387 18.5003 20.1699 16.398 19.9904C7.85821 19.2613 0.740543 12.1628 0.0124048 3.6023ZM3.5121 2C2.56855 2 1.94336 2.70566 2.00521 3.43279C2.65065 11.0211 8.99705 17.3513 16.5681 17.9977C17.2949 18.0597 18.0005 17.4349 18.0005 16.4913C18.0005 16.1013 17.9976 15.7109 17.9946 15.316L17.9946 15.3135C17.9916 14.9206 17.9886 14.5234 17.9886 14.125C17.9886 13.8002 17.7934 13.5072 17.4937 13.382L14.6915 12.212C14.4143 12.0963 14.0957 12.1444 13.8651 12.337L11.0331 14.7019L10.4056 14.2603C8.57122 12.9694 6.99919 11.2704 5.8679 9.33836L5.51345 8.73302L7.67532 6.13339C7.86674 5.90321 7.91466 5.58583 7.79972 5.30939L6.62992 2.49606C6.50504 2.19571 6.2117 2 5.88643 2H3.5121Z" fill="white"/>
</svg>
