<svg width="20" height="20" viewBox="0 0 20 20" fill="none" xmlns="http://www.w3.org/2000/svg">
<g clip-path="url(#clip0_2552_5634)">
<path d="M16.4016 6.8625V7.3625C16.4016 12.1625 13.1016 17.4625 7.10156 17.4625C5.20156 17.4625 3.50156 17.0625 2.10156 16.0625C2.40156 16.0625 2.60156 16.1625 2.90156 16.1625C4.40156 16.1625 5.90156 15.5625 7.00156 14.5625C5.60156 14.5625 4.40156 13.4625 3.90156 12.0625C4.10156 12.0625 4.30156 12.1625 4.50156 12.1625C4.80156 12.1625 5.20156 12.1625 5.50156 12.0625C3.90156 11.6625 3.00156 10.1625 3.00156 8.3625C3.00156 8.6625 3.70156 8.7625 4.20156 8.8625C3.30156 8.1625 2.80156 7.0625 2.80156 5.8625C2.80156 5.1625 2.90156 4.5625 3.20156 4.0625C4.80156 6.2625 7.10156 7.6625 9.80156 7.8625V6.9625C9.80156 4.9625 11.3016 3.0625 13.1016 3.0625C14.0016 3.0625 14.9016 3.7625 15.5016 4.4625C16.2016 4.2625 16.9016 3.9625 17.6016 3.5625C17.4016 4.3625 16.8016 5.1625 16.2016 5.5625C16.8016 5.4625 17.4016 5.2625 18.0016 4.9625C17.6016 5.7625 17.0016 6.3625 16.4016 6.8625Z" fill="white"/>
</g>
<defs>
<clipPath id="clip0_2552_5634">
<rect width="20" height="20" fill="white"/>
</clipPath>
</defs>
</svg>
