<svg width="480" height="379" viewBox="0 0 480 379" fill="none" xmlns="http://www.w3.org/2000/svg">
<g clip-path="url(#clip0_2584_3991)">
<path d="M524.572 0H-44.5713V379H524.572V0Z" fill="white"/>
<path d="M102.286 269.597C102.286 269.597 73.7159 257.435 61.9513 226.659C50.1868 195.883 60.2705 175.136 82.1187 172.919C103.966 170.702 105.697 152.796 105.392 124.258C105.087 95.7199 143.181 66.6218 194.159 57.1096C245.138 47.5975 256.342 78.3731 284.913 83.4092C313.483 88.4454 367.822 82.2904 383.509 96.2793C399.194 110.268 405.917 134.98 392.472 169.628C379.028 204.276 388.105 214.348 400.653 235.052C413.2 255.756 412.64 282.616 395.273 301.082H131.416C131.416 301.082 127.012 287.809 102.286 269.597Z" fill="#D2D9FF"/>
<path d="M368.771 301.083C368.771 301.083 366.192 297.648 370.491 293.354C370.491 293.354 368.005 278.811 382.85 276.854C382.85 276.854 385.651 267.061 394.054 265.942C402.457 264.823 409.18 270.139 411.141 277.414C411.141 277.414 417.583 275.175 423.465 279.093C429.347 283.01 428.787 291.124 428.787 291.124C428.787 291.124 435.23 293.418 432.709 301.084H368.771V301.083Z" fill="#98A3F4"/>
<path d="M390.18 294.894C385.73 294.4 384.741 289.132 387.378 285.18C390.016 281.229 396.633 283.438 396.633 283.438C396.633 283.438 391.004 279.583 393.806 273.645C395.705 269.619 398.889 267.447 400.745 266.463C398.696 265.842 396.447 265.624 394.054 265.942C385.651 267.061 382.85 276.854 382.85 276.854C368.005 278.812 370.491 293.354 370.491 293.354C366.192 297.648 368.771 301.083 368.771 301.083H389.293C388.319 298.162 390.18 294.894 390.18 294.894Z" fill="#7284DD"/>
<path d="M397.103 301.082V278.668" stroke="#2B284F" stroke-miterlimit="10"/>
<path d="M386.084 283.438L397.101 292.427" stroke="#2B284F" stroke-miterlimit="10"/>
<path d="M397.103 297.278L412.415 287.934" stroke="#2B284F" stroke-miterlimit="10"/>
<path d="M341.864 299.786C341.864 299.786 337.382 292.139 336.262 284.118C335.142 276.098 336.636 268.264 339.063 268.451C341.491 268.637 343.056 275.352 346.942 272.927C350.827 270.502 348.096 256.14 351.388 244.576C354.68 233.011 361.472 230.316 365.019 232.13C368.567 233.944 365.206 251.664 369.874 249.986C374.543 248.307 371.182 231.893 383.88 220.515C396.578 209.137 400.125 215.478 398.632 220.515C397.138 225.551 381.826 245.695 384.441 251.664C387.055 257.632 394.043 251.477 398.952 254.275C403.861 257.073 397.512 265.28 387.802 269.011C378.092 272.742 380.706 275.166 385.001 278.71C389.297 282.254 394.712 292.14 381.08 296.616C367.447 301.092 346.346 303.704 341.864 299.786Z" fill="#4958ED"/>
<path d="M342.739 300.362C345.471 296.674 350.664 289.455 356.972 279.669C366.365 265.098 376.007 248.771 381.445 237.055C385.006 229.386 392.134 219.972 396.633 214.384C394.357 213.55 390.283 214.778 383.88 220.517C371.182 231.894 374.543 248.309 369.874 249.988C365.206 251.667 368.568 233.947 365.019 232.132C361.472 230.318 354.68 233.014 351.388 244.578C348.096 256.143 350.828 270.504 346.942 272.929C343.056 275.354 341.491 268.639 339.063 268.452C336.636 268.266 335.142 276.1 336.262 284.12C337.382 292.141 341.864 299.788 341.864 299.788C342.106 300 342.405 300.188 342.739 300.362Z" fill="#3248B2"/>
<path d="M342.741 300.36L372.081 255.953" stroke="#2B284F" stroke-miterlimit="10"/>
<path d="M356.973 251.664L360.509 273.647" stroke="#2B284F" stroke-miterlimit="10"/>
<path d="M352.107 286.182L379.177 285.965" stroke="#2B284F" stroke-miterlimit="10"/>
<path d="M58.0298 94.3417H141.687C141.687 94.3417 142.06 90.9845 136.085 86.3213C130.11 81.6581 131.977 76.249 123.947 74.9437C115.918 73.6377 114.237 79.234 108.262 76.0625C102.286 72.8918 101.912 67.4827 93.5094 66.5496C85.1066 65.6173 81.9315 79.2333 78.0105 80.4453C74.0887 81.6573 62.5116 81.6573 59.7106 86.8807C56.9097 92.1033 58.0298 94.3417 58.0298 94.3417Z" fill="#7DA2FF"/>
<path d="M313.906 74.152H401.857C401.857 74.152 401.157 69.2553 391.634 67.4369C382.11 65.6184 383.651 61.1417 378.189 57.924C372.727 54.7063 374.267 47.9919 365.164 47.572C356.061 47.152 352.84 60.862 348.639 60.862C344.437 60.862 342.056 53.9975 334.773 60.8574C327.491 67.7166 321.748 67.0177 317.547 67.997C313.346 68.9764 313.906 74.152 313.906 74.152Z" fill="#7DA2FF"/>
<path d="M87.7626 82.3539C88.4433 75.4236 92.3423 70.1274 95.512 66.8892C94.8973 66.746 94.2349 66.63 93.5094 66.5496C85.1066 65.6173 81.9315 79.2333 78.0105 80.4453C74.0887 81.6573 62.5116 81.6573 59.7106 86.8807C56.9097 92.1033 58.0298 94.3417 58.0298 94.3417H95.8368C91.0879 91.1543 87.2974 87.0914 87.7626 82.3539Z" fill="#6A92E2"/>
<path d="M353.265 66.5494C352.306 60.9925 355.477 54.6595 358.296 50.332C354.011 54.2289 351.561 60.8607 348.638 60.8607C344.436 60.8607 342.056 53.9962 334.773 60.8561C327.49 67.7152 321.748 67.0164 317.547 67.9957C313.345 68.975 313.906 74.1507 313.906 74.1507H360.524C356.638 71.8903 353.743 69.3177 353.265 66.5494Z" fill="#6A92E2"/>
<path d="M98.0846 197.953C98.0846 197.953 102.821 209.144 92.7377 213.9C82.654 218.657 83.494 228.552 86.015 234.096C88.5359 239.64 91.0568 248.034 81.8132 256.707C72.5695 265.38 68.0885 274.333 70.6094 286.924C73.1303 299.514 81.5332 301.081 81.5332 301.081H132.232C132.232 301.081 147.917 286.905 136.993 265.791C126.07 244.676 126.35 243.38 128.871 234.096C131.392 224.812 131.672 222.014 122.989 210.822C114.306 199.631 121.41 182.564 119.538 176.409C117.667 170.254 108.983 166.057 102.541 171.932C96.0987 177.808 93.9078 185.642 98.0846 197.953Z" fill="#98A3F4"/>
<path d="M109.274 169.121C107.001 169.17 104.651 170.008 102.541 171.933C96.0979 177.808 93.9071 185.642 98.0838 197.952C98.0838 197.952 102.821 209.144 92.7369 213.9C82.6532 218.656 83.4933 228.551 86.015 234.095C88.5359 239.64 91.0568 248.033 81.8132 256.706C72.5695 265.38 68.0885 274.333 70.6094 286.923C73.1303 299.514 81.5332 301.081 81.5332 301.081H109.275V169.121H109.274Z" fill="#8090E0"/>
<path d="M109.49 301.083V234.098" stroke="#2B284F" stroke-miterlimit="10"/>
<path d="M101.285 254.188L109.491 265.789" stroke="#2B284F" stroke-miterlimit="10"/>
<path d="M109.49 284.967L126.867 267.59" stroke="#2B284F" stroke-miterlimit="10"/>
<path d="M40.8651 301.083C40.8651 301.083 38.2857 297.648 42.5846 293.354C42.5846 293.354 40.0986 278.811 54.9441 276.854C54.9441 276.854 57.7451 267.061 66.1479 265.942C74.5507 264.823 81.2735 270.139 83.2343 277.414C83.2343 277.414 89.677 275.175 95.5589 279.093C101.441 283.01 100.881 291.124 100.881 291.124C100.881 291.124 107.324 293.418 104.803 301.084H40.8651V301.083Z" fill="#7CBFF2"/>
<path d="M57.8195 293.352C59.303 283.58 70.2723 284.965 70.2723 284.965C70.2723 284.965 62.2694 283.368 63.0116 275.857C63.5078 270.832 67.1003 267.495 69.4254 265.834C68.3668 265.764 67.274 265.79 66.1479 265.94C57.7451 267.058 54.9441 276.851 54.9441 276.851C40.0986 278.81 42.5846 293.351 42.5846 293.351C38.2857 297.645 40.8651 301.08 40.8651 301.08H59.9306C58.2353 299.281 57.2989 296.783 57.8195 293.352Z" fill="#6DABD1"/>
<path d="M70.125 301.082V278.668" stroke="#2B284F" stroke-miterlimit="10"/>
<path d="M59.1113 283.438L70.1284 292.427" stroke="#2B284F" stroke-miterlimit="10"/>
<path d="M70.125 297.278L85.4372 287.934" stroke="#2B284F" stroke-miterlimit="10"/>
<path d="M34.2773 301.086H438.744" stroke="#2B284F" stroke-width="3" stroke-miterlimit="10" stroke-linecap="round"/>
<path d="M126.845 318.543H191.916" stroke="#D2D9FF" stroke-width="3" stroke-miterlimit="10" stroke-linecap="round"/>
<path d="M108.59 330.109H151.299" stroke="#D2D9FF" stroke-width="3" stroke-miterlimit="10" stroke-linecap="round"/>
<path d="M306.162 333.84H383.843" stroke="#D2D9FF" stroke-width="3" stroke-miterlimit="10" stroke-linecap="round"/>
<path d="M286.309 347.27H321.234" stroke="#D2D9FF" stroke-width="3" stroke-miterlimit="10" stroke-linecap="round"/>
<path d="M343.801 272.742H129.987C123.979 272.742 119.107 267.876 119.107 261.874V100.688C119.107 94.6859 123.979 89.8203 129.987 89.8203H343.801C349.81 89.8203 354.681 94.6859 354.681 100.688V261.874C354.681 267.876 349.81 272.742 343.801 272.742Z" fill="#E9EFFF"/>
<path d="M354.68 241.825V102.133C354.68 95.3325 349.162 89.8203 342.354 89.8203H131.434C124.626 89.8203 119.107 95.3325 119.107 102.133V241.825H354.68Z" fill="#2B284F"/>
<path d="M342.66 234.098H131.125C128.761 234.098 126.844 232.184 126.844 229.822V101.827C126.844 99.4655 128.761 97.5508 131.125 97.5508H342.66C345.025 97.5508 346.942 99.4655 346.942 101.827V229.821C346.942 232.184 345.025 234.098 342.66 234.098Z" fill="#D2D9FF"/>
<mask id="mask0_2584_3991" style="mask-type:luminance" maskUnits="userSpaceOnUse" x="126" y="97" width="221" height="138">
<path d="M342.66 234.098H131.125C128.761 234.098 126.844 232.184 126.844 229.822V101.827C126.844 99.4655 128.761 97.5508 131.125 97.5508H342.66C345.025 97.5508 346.942 99.4655 346.942 101.827V229.821C346.942 232.184 345.025 234.098 342.66 234.098Z" fill="white"/>
</mask>
<g mask="url(#mask0_2584_3991)">
<path d="M126.844 121.293L167.509 175.503" stroke="white" stroke-width="5" stroke-miterlimit="10" stroke-linecap="round" stroke-linejoin="round"/>
<path d="M126.844 204.719L279.495 97.5508" stroke="white" stroke-width="5" stroke-miterlimit="10" stroke-linecap="round" stroke-linejoin="round"/>
<path d="M185.474 97.5508L216.372 141.866" stroke="white" stroke-width="5" stroke-miterlimit="10" stroke-linecap="round" stroke-linejoin="round"/>
<path d="M141.688 141.084L191.913 106.789" stroke="white" stroke-width="5" stroke-miterlimit="10" stroke-linecap="round" stroke-linejoin="round"/>
<path d="M156.058 160.237L205.718 126.586" stroke="white" stroke-width="5" stroke-miterlimit="10" stroke-linecap="round" stroke-linejoin="round"/>
<path d="M173.147 234.096L286.31 148.066" stroke="white" stroke-width="5" stroke-miterlimit="10" stroke-linecap="round" stroke-linejoin="round"/>
<path d="M175.571 170.512L222.449 234.099" stroke="white" stroke-width="5" stroke-miterlimit="10" stroke-linecap="round" stroke-linejoin="round"/>
<path d="M246.094 178.984L287.711 234.098" stroke="white" stroke-width="5" stroke-miterlimit="10" stroke-linecap="round" stroke-linejoin="round"/>
<path d="M316.561 97.5508L272.174 129.36L346.941 229.253" stroke="white" stroke-width="5" stroke-miterlimit="10" stroke-linecap="round" stroke-linejoin="round"/>
<path d="M302.974 170.509L346.94 137.426" stroke="white" stroke-width="5" stroke-miterlimit="10" stroke-linecap="round" stroke-linejoin="round"/>
<path d="M309.545 102.578L341.042 141.866" stroke="white" stroke-width="5" stroke-miterlimit="10" stroke-linecap="round" stroke-linejoin="round"/>
</g>
<path d="M218.622 272.742L208.523 313.965H262.688L255.223 272.742H218.622Z" fill="#E9EFFF"/>
<path d="M218.622 272.742L217.17 278.668H256.295L255.222 272.742H218.622Z" fill="#7DA2FF"/>
<path d="M220.491 127.307C220.491 117.331 212.128 109.306 202.023 109.846C194.717 110.236 188.4 115.318 186.244 122.301C185.176 125.76 185.304 129.047 186.144 132.037H186.131C188.037 139.88 197.001 148.269 201.023 151.712C202.154 152.68 203.814 152.68 204.945 151.712C208.967 148.269 217.932 139.88 219.837 132.037H219.824C220.248 130.53 220.491 128.948 220.491 127.307Z" fill="#BC4D88"/>
<path d="M205.429 195.02C205.429 191.171 202.203 188.075 198.304 188.283C195.485 188.434 193.048 190.394 192.216 193.088C191.804 194.422 191.853 195.691 192.178 196.845H192.173C192.908 199.871 196.367 203.108 197.918 204.436C198.355 204.809 198.995 204.809 199.431 204.436C200.983 203.108 204.442 199.871 205.177 196.845H205.172C205.336 196.264 205.429 195.653 205.429 195.02Z" fill="#E1625D"/>
<path d="M306.961 131.384C306.961 127.535 303.734 124.439 299.835 124.647C297.017 124.797 294.579 126.758 293.747 129.452C293.335 130.786 293.385 132.055 293.71 133.208H293.705C294.44 136.234 297.899 139.471 299.45 140.8C299.887 141.173 300.527 141.173 300.963 140.8C302.515 139.472 305.974 136.235 306.709 133.208H306.703C306.867 132.628 306.961 132.017 306.961 131.384Z" fill="#E1625D"/>
<path d="M259.608 200.828C259.608 196.979 256.381 193.884 252.482 194.092C249.664 194.243 247.227 196.203 246.395 198.897C245.983 200.231 246.032 201.5 246.357 202.654H246.352C247.088 205.68 250.547 208.916 252.098 210.244C252.534 210.618 253.175 210.618 253.611 210.244C255.163 208.916 258.622 205.68 259.356 202.654H259.352C259.515 202.072 259.608 201.462 259.608 200.828Z" fill="#E1625D"/>
<path d="M164.813 164.348C164.813 160.499 161.587 157.403 157.688 157.612C154.869 157.762 152.432 159.723 151.6 162.416C151.188 163.751 151.237 165.019 151.562 166.173H151.557C152.292 169.199 155.751 172.436 157.302 173.764C157.738 174.138 158.379 174.138 158.815 173.764C160.367 172.436 163.826 169.2 164.561 166.173H164.556C164.72 165.591 164.813 164.981 164.813 164.348Z" fill="#E1625D"/>
<path d="M205.367 121.289V125.486L201.165 121.289L196.591 125.486V137.423H209.382V127.538V125.486V121.289H205.367Z" fill="white"/>
<path d="M119.107 241.825L321.239 89.8203H345.948L142.781 241.825H119.107Z" fill="url(#paint0_linear_2584_3991)"/>
<path d="M272.683 47.5625V51.2676" stroke="#98A3F4" stroke-miterlimit="10" stroke-linecap="round" stroke-linejoin="round"/>
<path d="M272.684 53.125V56.8301" stroke="#98A3F4" stroke-miterlimit="10" stroke-linecap="round" stroke-linejoin="round"/>
<path d="M277.322 52.1953H273.612" stroke="#98A3F4" stroke-miterlimit="10" stroke-linecap="round" stroke-linejoin="round"/>
<path d="M271.754 52.1953H268.045" stroke="#98A3F4" stroke-miterlimit="10" stroke-linecap="round" stroke-linejoin="round"/>
<path d="M207.741 32C207.741 33.2795 206.703 34.3165 205.422 34.3165C204.141 34.3165 203.103 33.2795 203.103 32C203.103 30.7205 204.141 29.6836 205.422 29.6836C206.703 29.6836 207.741 30.7205 207.741 32Z" stroke="#98A3F4" stroke-miterlimit="10" stroke-linecap="round" stroke-linejoin="round"/>
<path d="M412.414 161.195V164.9" stroke="#98A3F4" stroke-miterlimit="10" stroke-linecap="round" stroke-linejoin="round"/>
<path d="M412.414 166.758V170.464" stroke="#98A3F4" stroke-miterlimit="10" stroke-linecap="round" stroke-linejoin="round"/>
<path d="M417.054 165.828H413.344" stroke="#98A3F4" stroke-miterlimit="10" stroke-linecap="round" stroke-linejoin="round"/>
<path d="M411.486 165.828H407.776" stroke="#98A3F4" stroke-miterlimit="10" stroke-linecap="round" stroke-linejoin="round"/>
<path d="M433.294 237.195V240.901" stroke="#98A3F4" stroke-miterlimit="10" stroke-linecap="round" stroke-linejoin="round"/>
<path d="M433.294 242.758V246.464" stroke="#98A3F4" stroke-miterlimit="10" stroke-linecap="round" stroke-linejoin="round"/>
<path d="M437.933 241.828H434.224" stroke="#98A3F4" stroke-miterlimit="10" stroke-linecap="round" stroke-linejoin="round"/>
<path d="M432.366 241.828H428.656" stroke="#98A3F4" stroke-miterlimit="10" stroke-linecap="round" stroke-linejoin="round"/>
<path d="M465.195 205.895V209.6" stroke="#98A3F4" stroke-miterlimit="10" stroke-linecap="round" stroke-linejoin="round"/>
<path d="M465.195 211.457V215.162" stroke="#98A3F4" stroke-miterlimit="10" stroke-linecap="round" stroke-linejoin="round"/>
<path d="M469.835 210.527H466.125" stroke="#98A3F4" stroke-miterlimit="10" stroke-linecap="round" stroke-linejoin="round"/>
<path d="M464.267 210.527H460.558" stroke="#98A3F4" stroke-miterlimit="10" stroke-linecap="round" stroke-linejoin="round"/>
<path d="M451.753 186.207C451.753 187.487 450.715 188.524 449.434 188.524C448.153 188.524 447.115 187.487 447.115 186.207C447.115 184.928 448.153 183.891 449.434 183.891C450.714 183.89 451.753 184.928 451.753 186.207Z" stroke="#98A3F4" stroke-miterlimit="10" stroke-linecap="round" stroke-linejoin="round"/>
<path d="M438.397 126.418C438.397 127.698 437.359 128.734 436.078 128.734C434.797 128.734 433.759 127.698 433.759 126.418C433.759 125.139 434.797 124.102 436.078 124.102C437.359 124.102 438.397 125.139 438.397 126.418Z" stroke="#98A3F4" stroke-miterlimit="10" stroke-linecap="round" stroke-linejoin="round"/>
<path d="M59.1104 137.469V141.175" stroke="#98A3F4" stroke-miterlimit="10" stroke-linecap="round" stroke-linejoin="round"/>
<path d="M59.1113 143.031V146.736" stroke="#98A3F4" stroke-miterlimit="10" stroke-linecap="round" stroke-linejoin="round"/>
<path d="M63.7484 142.102H60.0391" stroke="#98A3F4" stroke-miterlimit="10" stroke-linecap="round" stroke-linejoin="round"/>
<path d="M58.182 142.102H54.4727" stroke="#98A3F4" stroke-miterlimit="10" stroke-linecap="round" stroke-linejoin="round"/>
<path d="M29.6377 183.645V187.35" stroke="#98A3F4" stroke-miterlimit="10" stroke-linecap="round" stroke-linejoin="round"/>
<path d="M29.6387 189.207V192.913" stroke="#98A3F4" stroke-miterlimit="10" stroke-linecap="round" stroke-linejoin="round"/>
<path d="M34.2767 188.277H30.5674" stroke="#98A3F4" stroke-miterlimit="10" stroke-linecap="round" stroke-linejoin="round"/>
<path d="M28.7093 188.277H25" stroke="#98A3F4" stroke-miterlimit="10" stroke-linecap="round" stroke-linejoin="round"/>
<path d="M29.6381 220.922C29.6381 222.201 28.6 223.238 27.3191 223.238C26.0381 223.238 25 222.201 25 220.922C25 219.642 26.0381 218.605 27.3191 218.605C28.6 218.605 29.6381 219.643 29.6381 220.922Z" stroke="#98A3F4" stroke-miterlimit="10" stroke-linecap="round" stroke-linejoin="round"/>
<path d="M31.0268 118.977C31.0268 120.256 29.9887 121.293 28.7077 121.293C27.4268 121.293 26.3887 120.256 26.3887 118.977C26.3887 117.697 27.4268 116.66 28.7077 116.66C29.9887 116.66 31.0268 117.697 31.0268 118.977Z" stroke="#98A3F4" stroke-miterlimit="10" stroke-linecap="round" stroke-linejoin="round"/>
<path d="M90.0805 121.293C90.0805 122.573 89.0424 123.609 87.7615 123.609C86.4805 123.609 85.4424 122.573 85.4424 121.293C85.4424 120.014 86.4805 118.977 87.7615 118.977C89.0416 118.977 90.0805 120.014 90.0805 121.293Z" stroke="#98A3F4" stroke-miterlimit="10" stroke-linecap="round" stroke-linejoin="round"/>
<path d="M329.537 167.457C329.537 167.457 326.829 171.654 325.242 176.317C325.242 176.317 323.771 175.991 323.001 177.11C322.231 178.23 323.561 179.559 323.561 179.559C323.561 179.559 321.88 182.146 322.441 185.084C323.001 188.022 328.743 189.98 328.743 189.98L327.203 193.408C327.203 193.408 330.003 194.108 331.124 195.436L334.205 188.651C334.205 188.651 338.126 188.512 338.966 185.923C339.806 183.336 338.406 179.908 335.115 182.356C335.115 182.356 327.179 175.711 329.537 167.457Z" fill="#E5827C"/>
<path d="M348.562 173.051C348.562 173.051 350.313 168.435 347.862 163.539C345.411 158.643 339.179 157.593 333.017 160.391C333.017 160.391 331.196 156.404 325.874 158.293C320.592 160.168 319.94 168.725 325.751 174.939C327.347 170.859 329.539 167.456 329.539 167.456C327.181 175.71 335.117 182.354 335.117 182.354C338.408 179.906 339.809 183.334 338.968 185.922C338.128 188.509 334.206 188.65 334.206 188.65L332.703 191.96C332.703 191.96 334.766 196.483 340.509 194.245C346.251 192.007 349.612 183.263 349.892 179.416C350.173 175.569 348.562 173.051 348.562 173.051Z" fill="#252E64"/>
<path d="M327.205 193.406C327.205 193.406 324.035 193.337 322.328 195.784C320.622 198.233 311.939 224.882 310.539 230.548C309.138 236.213 309.628 236.633 309.628 236.633C309.628 236.633 324.808 240.55 330.768 237.612C330.768 237.612 331.966 220.126 332.247 214.53C332.527 208.935 334.137 199.489 331.126 195.435C331.126 195.435 329.515 193.757 327.205 193.406Z" fill="#ECB32B"/>
<path d="M309.629 236.636C309.629 236.636 309.445 236.472 309.627 235.037L309.545 235.027C309.545 235.027 302.741 273.008 301.775 275.638C300.809 278.268 293.951 303.714 290.831 311.77C290.831 311.77 294.855 315.191 297.706 314.686C297.706 314.686 307.065 295.054 309.343 287.307C311.621 279.56 310.574 278.205 310.632 277.115C310.69 276.025 330.768 237.616 330.768 237.616C324.809 240.552 309.629 236.636 309.629 236.636Z" fill="#211D35"/>
<path d="M290.829 311.766C290.829 311.766 282.947 318.493 281.732 320.078H297.932C297.932 320.078 298.241 317.335 297.544 314.696C294.704 315.054 290.829 311.766 290.829 311.766Z" fill="#4358BC"/>
<path d="M331.03 313.965C328.602 315.543 323.56 313.965 323.56 313.965C323.56 313.965 316.651 318.495 315.438 320.08H331.637C331.637 320.08 332.01 316.802 331.03 313.965Z" fill="#4358BC"/>
<path d="M327.206 193.407C327.206 193.407 322.164 192.265 312.734 195.436C303.304 198.606 303.304 198.607 303.304 198.607C303.304 198.607 303.957 204.109 308.252 206.907C312.547 209.704 321.244 210.357 322.684 208.492C324.125 206.628 327.206 193.407 327.206 193.407Z" fill="#CC9527"/>
<path d="M337.708 184.384C337.555 183.937 337.279 183.609 336.986 183.595C336.833 183.58 336.65 183.598 336.578 183.66C336.471 183.71 336.345 183.853 336.236 183.996C336.003 184.298 335.805 184.675 335.591 185.048C335.382 185.426 335.17 185.814 334.907 186.203C334.865 185.734 334.924 185.276 335.041 184.83C335.157 184.382 335.338 183.949 335.634 183.537C335.806 183.345 335.974 183.132 336.282 183.009C336.615 182.892 336.905 182.919 337.171 183.037C337.448 183.151 337.662 183.405 337.729 183.657C337.801 183.912 337.791 184.161 337.708 184.384Z" fill="#873548"/>
<path d="M323.563 181.445L327.718 182.845C327.718 182.845 326.878 185.736 324.077 185.503C321.276 185.27 323.563 181.445 323.563 181.445Z" fill="#873548"/>
<path d="M328.85 177.044C328.501 177.848 327.806 178.32 327.298 178.099C326.789 177.879 326.659 177.05 327.009 176.246C327.358 175.443 328.053 174.97 328.561 175.191C329.07 175.412 329.199 176.241 328.85 177.044Z" fill="#252E64"/>
<path d="M315.068 198.327L273.566 163.121L268.045 169.513L309.547 204.719L315.068 198.327Z" fill="#242C67"/>
<path d="M327.203 193.408C327.203 193.408 323.035 192.319 319.267 203.378C319.267 203.378 318.099 206.978 317.329 207.328C316.559 207.677 313.127 204.74 307.806 202.361C302.484 199.983 298.002 196.695 298.002 196.695C298.002 196.695 295.551 199.703 295.411 202.291C295.411 202.291 311.237 215.021 317.329 217.889C323.421 220.756 327.693 214.391 329.233 209.495C330.774 204.6 332.965 199.499 332.245 197.777C331.524 196.055 330.704 194.108 327.203 193.408Z" fill="#FFDF9F"/>
<path d="M281.571 180.985C281.571 180.985 281.058 183.192 281.898 184.731C282.738 186.271 282.738 186.271 282.738 186.271C282.738 186.271 283.159 189.628 284.979 190.747C286.8 191.867 289.168 191.976 291.205 189.159L289.045 187.327C289.045 187.327 290.721 182.004 289.95 180.326C289.18 178.647 285.047 179.64 283.892 182.956L281.571 180.985Z" fill="#E5827C"/>
<path d="M295.413 202.29C295.413 202.29 290.091 198.513 289.321 197.044C288.55 195.575 289.045 187.328 289.045 187.328L292.86 190.564C292.86 190.564 292.052 188.93 293.242 188.37C294.431 187.811 296.323 189.56 296.953 190.888C297.584 192.217 296.953 194.036 296.953 194.036L298.003 196.694C298.003 196.694 296.463 197.744 295.413 202.29Z" fill="#E5827C"/>
<path d="M328.233 274.334C327.859 273.308 330.769 237.612 330.769 237.612C326.058 239.933 315.593 237.974 311.411 237.051C311.411 237.051 319.362 273.634 319.503 276.432C319.643 279.23 323.284 305.329 323.564 313.963C323.564 313.963 328.606 315.541 331.034 313.963C331.034 313.963 331.967 292.24 331.034 284.219C330.1 276.199 328.606 275.359 328.233 274.334Z" fill="#2B284F"/>
<path d="M250.655 176.873C266.582 176.873 279.494 163.976 279.494 148.067C279.494 132.158 266.582 119.262 250.655 119.262C234.729 119.262 221.817 132.158 221.817 148.067C221.817 163.976 234.729 176.873 250.655 176.873Z" fill="#2B284F"/>
<path d="M250.654 172.014C263.895 172.014 274.629 161.292 274.629 148.065C274.629 134.839 263.895 124.117 250.654 124.117C237.413 124.117 226.679 134.839 226.679 148.065C226.679 161.292 237.413 172.014 250.654 172.014Z" fill="#D2D9FF"/>
<mask id="mask1_2584_3991" style="mask-type:luminance" maskUnits="userSpaceOnUse" x="226" y="124" width="49" height="49">
<path d="M250.654 172.014C263.895 172.014 274.629 161.292 274.629 148.065C274.629 134.839 263.895 124.117 250.654 124.117C237.413 124.117 226.679 134.839 226.679 148.065C226.679 161.292 237.413 172.014 250.654 172.014Z" fill="white"/>
</mask>
<g mask="url(#mask1_2584_3991)">
<path d="M178.353 127.297L226.048 190.878" stroke="white" stroke-width="5" stroke-miterlimit="10" stroke-linecap="round" stroke-linejoin="round"/>
<path d="M178.353 225.144L357.393 99.4492" stroke="white" stroke-width="5" stroke-miterlimit="10" stroke-linecap="round" stroke-linejoin="round"/>
<path d="M247.12 99.4492L283.359 151.425" stroke="white" stroke-width="5" stroke-miterlimit="10" stroke-linecap="round" stroke-linejoin="round"/>
<path d="M195.764 150.508L254.672 110.285" stroke="white" stroke-width="5" stroke-miterlimit="10" stroke-linecap="round" stroke-linejoin="round"/>
<path d="M212.615 172.971L270.861 133.504" stroke="white" stroke-width="5" stroke-miterlimit="10" stroke-linecap="round" stroke-linejoin="round"/>
<path d="M232.665 259.6L365.389 158.699" stroke="white" stroke-width="5" stroke-miterlimit="10" stroke-linecap="round" stroke-linejoin="round"/>
</g>
<path d="M238.933 129.444C235.382 131.372 232.393 134.525 230.749 138.221C230.457 138.875 230.29 139.487 230.489 140.206C230.653 140.803 231.116 141.451 231.674 141.745C232.273 142.061 232.997 142.22 233.661 142.005C234.259 141.812 234.936 141.421 235.203 140.821C235.751 139.589 236.446 138.433 237.27 137.367C237.136 137.541 237.002 137.715 236.867 137.888C237.726 136.795 238.709 135.813 239.805 134.957C239.631 135.091 239.457 135.226 239.283 135.36C239.996 134.812 240.747 134.322 241.537 133.892C242.724 133.248 243.201 131.512 242.462 130.368C241.685 129.165 240.203 128.754 238.933 129.444Z" fill="white"/>
<path d="M250.008 129.254C250.008 130.822 248.735 132.093 247.165 132.093C245.595 132.093 244.322 130.822 244.322 129.254C244.322 127.685 245.595 126.414 247.165 126.414C248.735 126.414 250.008 127.685 250.008 129.254Z" fill="white"/>
</g>
<defs>
<linearGradient id="paint0_linear_2584_3991" x1="292.182" y1="119.178" x2="146.607" y2="233.263" gradientUnits="userSpaceOnUse">
<stop stop-color="white" stop-opacity="0.7"/>
<stop offset="1" stop-color="white" stop-opacity="0"/>
</linearGradient>
<clipPath id="clip0_2584_3991">
<rect width="480" height="379" fill="white"/>
</clipPath>
</defs>
</svg>
