<svg width="16" height="16" viewBox="0 0 16 16" fill="none" xmlns="http://www.w3.org/2000/svg">
<path fill-rule="evenodd" clip-rule="evenodd" d="M0.701297 0.5C0.313982 0.5 0 0.80526 0 1.18182C0 1.55838 0.313982 1.86364 0.701297 1.86364H2.24869L4.19742 9.98335C4.48749 11.192 5.57872 12.0544 6.84796 12.0898V12.0909H12.334C13.7007 12.0909 14.8685 11.1333 15.099 9.82365L15.9795 4.82092C16.1261 3.98798 15.4662 3.22727 14.597 3.22727H4.01623L3.48814 1.02689C3.41408 0.718305 3.13111 0.5 2.80519 0.5H0.701297ZM4.3435 4.59091L5.56332 9.6735C5.71144 10.2907 6.27738 10.7273 6.92923 10.7273H12.334C13.0173 10.7273 13.6012 10.2485 13.7165 9.59364L14.597 4.59091H4.3435Z" fill="#2D2D2D"/>
<path d="M5.61038 15.5C6.38501 15.5 7.01297 14.8895 7.01297 14.1364C7.01297 13.3832 6.38501 12.7727 5.61038 12.7727C4.83575 12.7727 4.20778 13.3832 4.20778 14.1364C4.20778 14.8895 4.83575 15.5 5.61038 15.5Z" fill="#2D2D2D"/>
<path d="M13.3246 15.5C14.0993 15.5 14.7272 14.8895 14.7272 14.1364C14.7272 13.3832 14.0993 12.7727 13.3246 12.7727C12.55 12.7727 11.9221 13.3832 11.9221 14.1364C11.9221 14.8895 12.55 15.5 13.3246 15.5Z" fill="#2D2D2D"/>
</svg>
