<svg width="24" height="17" viewBox="0 0 24 17" fill="none" xmlns="http://www.w3.org/2000/svg">
<path d="M0 1.21429C0 0.543654 0.537258 0 1.2 0H22.8C23.4627 0 24 0.543654 24 1.21429C24 1.88492 23.4627 2.42857 22.8 2.42857H1.2C0.537258 2.42857 0 1.88492 0 1.21429Z" fill="black"/>
<path d="M0 8.5C0 7.82937 0.537258 7.28571 1.2 7.28571H22.8C23.4627 7.28571 24 7.82937 24 8.5C24 9.17063 23.4627 9.71429 22.8 9.71429H1.2C0.537258 9.71429 0 9.17063 0 8.5Z" fill="black"/>
<path d="M1.2 14.5714C0.537258 14.5714 0 15.1151 0 15.7857C0 16.4563 0.537258 17 1.2 17H22.8C23.4627 17 24 16.4563 24 15.7857C24 15.1151 23.4627 14.5714 22.8 14.5714H1.2Z" fill="black"/>
</svg>
