<svg width="14" height="17" viewBox="0 0 14 17" fill="none" xmlns="http://www.w3.org/2000/svg">
<path fill-rule="evenodd" clip-rule="evenodd" d="M6.56995 16.8507L6.56819 16.8493L6.56386 16.8459L6.5485 16.8336C6.53532 16.8231 6.51635 16.8079 6.49196 16.7882C6.44319 16.7487 6.37274 16.6911 6.2837 16.6167C6.10568 16.468 5.85303 16.2521 5.55057 15.98C4.94663 15.4368 4.1393 14.6655 3.32969 13.7552C2.52212 12.8472 1.69885 11.786 1.07427 10.6624C0.453331 9.5454 0 8.31542 0 7.08338C0 5.20475 0.737498 3.40307 2.05025 2.07467C3.36301 0.746283 5.14348 0 7 0C8.85651 0 10.637 0.746283 11.9497 2.07467C13.2625 3.40307 14 5.20475 14 7.08338C14 8.31542 13.5467 9.5454 12.9257 10.6624C12.3011 11.786 11.4779 12.8472 10.6703 13.7552C9.8607 14.6655 9.05337 15.4368 8.44943 15.98C8.14697 16.2521 7.89432 16.468 7.7163 16.6167C7.62726 16.6911 7.55681 16.7487 7.50804 16.7882C7.48365 16.8079 7.46468 16.8231 7.4515 16.8336L7.43614 16.8459L7.43181 16.8493L7.4305 16.8503C7.4305 16.8503 7.42976 16.8509 7 16.2918L7.42976 16.8509C7.17698 17.0499 6.82272 17.0496 6.56995 16.8507ZM7 16.2918L6.56995 16.8507C6.56995 16.8507 6.57024 16.8509 7 16.2918ZM9.1 7.08338C9.1 8.257 8.1598 9.2084 7 9.2084C5.8402 9.2084 4.9 8.257 4.9 7.08338C4.9 5.90977 5.8402 4.95837 7 4.95837C8.1598 4.95837 9.1 5.90977 9.1 7.08338Z" fill="#ED1F28"/>
</svg>
