<svg width="10" height="10" viewBox="0 0 10 10" fill="none" xmlns="http://www.w3.org/2000/svg">
<path fill-rule="evenodd" clip-rule="evenodd" d="M4.28571 0C1.91878 0 0 1.91878 0 4.28571C0 6.65265 1.91878 8.57143 4.28571 8.57143C5.29763 8.57143 6.22763 8.22073 6.9608 7.63424L9.18709 9.86053C9.37306 10.0465 9.67456 10.0465 9.86053 9.86053C10.0465 9.67456 10.0465 9.37306 9.86053 9.18709L7.63424 6.9608C8.22073 6.22763 8.57143 5.29763 8.57143 4.28571C8.57143 1.91878 6.65265 0 4.28571 0ZM0.952381 4.28571C0.952381 2.44477 2.44477 0.952381 4.28571 0.952381C6.12666 0.952381 7.61905 2.44477 7.61905 4.28571C7.61905 6.12666 6.12666 7.61905 4.28571 7.61905C2.44477 7.61905 0.952381 6.12666 0.952381 4.28571Z" fill="#858585"/>
</svg>
