<svg width="89" height="13" viewBox="0 0 89 13" fill="none" xmlns="http://www.w3.org/2000/svg">
<path d="M24.4793 2.97912C24.4196 2.84921 24.2874 2.76562 24.1417 2.76562C23.9959 2.76562 23.8637 2.84921 23.8041 2.97912L22.7617 5.2482L20.2307 5.51558C20.0858 5.53089 19.9636 5.62787 19.9185 5.76329C19.8735 5.89872 19.914 6.04735 20.022 6.14295L21.9088 7.8127L21.3869 10.247C21.3571 10.3864 21.4137 10.5299 21.5316 10.6136C21.6495 10.6973 21.8067 10.7056 21.9332 10.6348L24.1417 9.39764L26.3501 10.6348C26.4766 10.7056 26.6338 10.6973 26.7517 10.6136C26.8696 10.5299 26.9263 10.3864 26.8964 10.247L26.3746 7.8127L28.2613 6.14295C28.3693 6.04735 28.4098 5.89872 28.3648 5.76329C28.3198 5.62787 28.1976 5.53089 28.0527 5.51558L25.5217 5.2482L24.4793 2.97912Z" fill="white"/>
<path d="M34.6589 2.97912C34.5993 2.84921 34.4671 2.76562 34.3214 2.76562C34.1756 2.76562 34.0434 2.84921 33.9838 2.97912L32.9413 5.2482L30.4104 5.51558C30.2654 5.53089 30.1432 5.62787 30.0982 5.76329C30.0532 5.89872 30.0937 6.04735 30.2017 6.14295L32.0885 7.8127L31.5666 10.247C31.5367 10.3864 31.5934 10.5299 31.7113 10.6136C31.8292 10.6973 31.9864 10.7056 32.1129 10.6348L34.3214 9.39764L36.5298 10.6348C36.6563 10.7056 36.8135 10.6973 36.9314 10.6136C37.0493 10.5299 37.106 10.3864 37.0761 10.247L36.5542 7.8127L38.441 6.14295C38.549 6.04735 38.5895 5.89872 38.5445 5.76329C38.4995 5.62787 38.3773 5.53089 38.2324 5.51558L35.7014 5.2482L34.6589 2.97912Z" fill="white"/>
<path d="M44.8386 2.97912C44.779 2.84921 44.6468 2.76562 44.501 2.76562C44.3553 2.76562 44.2231 2.84921 44.1634 2.97912L43.121 5.2482L40.59 5.51558C40.4451 5.53089 40.3229 5.62787 40.2779 5.76329C40.2329 5.89872 40.2734 6.04735 40.3814 6.14295L42.2681 7.8127L41.7463 10.247C41.7164 10.3864 41.7731 10.5299 41.891 10.6136C42.0089 10.6973 42.1661 10.7056 42.2926 10.6348L44.501 9.39764L46.7095 10.6348C46.836 10.7056 46.9932 10.6973 47.1111 10.6136C47.229 10.5299 47.2856 10.3864 47.2558 10.247L46.7339 7.8127L48.6207 6.14295C48.7287 6.04735 48.7692 5.89872 48.7242 5.76329C48.6791 5.62787 48.5569 5.53089 48.412 5.51558L45.881 5.2482L44.8386 2.97912Z" fill="white"/>
<path d="M55.0164 2.97912C54.9567 2.84921 54.8245 2.76562 54.6788 2.76562C54.533 2.76562 54.4009 2.84921 54.3412 2.97912L53.2988 5.2482L50.7678 5.51558C50.6229 5.53089 50.5007 5.62787 50.4556 5.76329C50.4106 5.89872 50.4511 6.04735 50.5591 6.14295L52.4459 7.8127L51.924 10.247C51.8942 10.3864 51.9508 10.5299 52.0687 10.6136C52.1866 10.6973 52.3439 10.7056 52.4703 10.6348L54.6788 9.39764L56.8873 10.6348C57.0137 10.7056 57.1709 10.6973 57.2888 10.6136C57.4067 10.5299 57.4634 10.3864 57.4335 10.247L56.9117 7.8127L58.7984 6.14295C58.9064 6.04735 58.947 5.89872 58.9019 5.76329C58.8569 5.62787 58.7347 5.53089 58.5898 5.51558L56.0588 5.2482L55.0164 2.97912Z" fill="white"/>
<path d="M65.1961 2.97912C65.1364 2.84921 65.0042 2.76562 64.8585 2.76562C64.7127 2.76562 64.5805 2.84921 64.5209 2.97912L63.4785 5.2482L60.9475 5.51558C60.8026 5.53089 60.6804 5.62787 60.6353 5.76329C60.5903 5.89872 60.6308 6.04735 60.7388 6.14295L62.6256 7.8127L62.1037 10.247C62.0739 10.3864 62.1305 10.5299 62.2484 10.6136C62.3663 10.6973 62.5235 10.7056 62.65 10.6348L64.8585 9.39764L67.0669 10.6348C67.1934 10.7056 67.3506 10.6973 67.4685 10.6136C67.5864 10.5299 67.6431 10.3864 67.6132 10.247L67.0913 7.8127L68.9781 6.14295C69.0861 6.04735 69.1266 5.89872 69.0816 5.76329C69.0366 5.62787 68.9144 5.53089 68.7695 5.51558L66.2385 5.2482L65.1961 2.97912Z" fill="white"/>
<path d="M3.37205 9.98894V8.34161H0.287453V6.76062L3.9359 2.13925H5.14099V6.76062H6.11391V8.34161H5.14099V9.98894H3.37205ZM2.04534 6.76062H3.57106V4.79267L2.04534 6.76062ZM7.01851 10V8.19789H8.46683V10H7.01851ZM15.2138 7.62298C15.2138 8.11681 15.0811 8.55168 14.8158 8.92758C14.5578 9.29611 14.2077 9.58356 13.7655 9.78994C13.3232 9.99631 12.8368 10.0995 12.3061 10.0995C11.7828 10.0995 11.3 9.99631 10.8578 9.78994C10.4229 9.57619 10.0728 9.27768 9.80745 8.89441C9.54211 8.51114 9.40944 8.06522 9.40944 7.55665C9.40944 7.27656 9.46471 7.02596 9.57527 6.80484C9.68583 6.57636 9.82587 6.37735 9.9954 6.20783C10.1723 6.0383 10.3418 5.90563 10.504 5.80981C10.3418 5.714 10.1944 5.59607 10.0617 5.45602C9.93643 5.30861 9.83324 5.14646 9.75217 4.96957C9.67846 4.7853 9.64161 4.59735 9.64161 4.40571C9.64161 4.03718 9.72269 3.71288 9.88484 3.43279C10.047 3.15271 10.2607 2.91685 10.5261 2.72522C10.7914 2.53358 11.0789 2.38985 11.3884 2.29404C11.7054 2.19822 12.0113 2.15031 12.3061 2.15031C12.6083 2.15031 12.9178 2.19822 13.2348 2.29404C13.5517 2.38985 13.8429 2.53358 14.1082 2.72522C14.3735 2.90948 14.5873 3.14166 14.7494 3.42174C14.9116 3.70182 14.9927 4.02244 14.9927 4.3836C14.9927 4.57524 14.9521 4.76687 14.8711 4.95851C14.79 5.14277 14.6831 5.30861 14.5504 5.45602C14.4178 5.60344 14.2703 5.72137 14.1082 5.80981C14.2925 5.913 14.4694 6.05304 14.6389 6.22994C14.8084 6.39946 14.9448 6.60215 15.0479 6.83801C15.1585 7.0665 15.2138 7.32816 15.2138 7.62298ZM13.4227 7.51242C13.4227 7.35764 13.3932 7.22128 13.3343 7.10335C13.2753 6.97805 13.1906 6.87487 13.08 6.79379C12.9768 6.70534 12.8589 6.64269 12.7262 6.60584C12.5935 6.56161 12.4535 6.5395 12.3061 6.5395C12.1071 6.5395 11.9228 6.58004 11.7533 6.66112C11.5838 6.74219 11.4474 6.85644 11.3442 7.00385C11.2484 7.14389 11.2005 7.3171 11.2005 7.52348C11.2005 7.66352 11.23 7.79619 11.2889 7.92149C11.3553 8.03942 11.44 8.14261 11.5432 8.23106C11.6464 8.3195 11.7643 8.38584 11.897 8.43006C12.0297 8.47429 12.1697 8.4964 12.3171 8.4964C12.5161 8.4964 12.6967 8.45586 12.8589 8.37478C13.0284 8.28634 13.1648 8.16841 13.2679 8.02099C13.3711 7.87358 13.4227 7.70406 13.4227 7.51242ZM11.4327 4.43888C11.4327 4.60841 11.4769 4.75213 11.5653 4.87006C11.6538 4.98062 11.7643 5.06538 11.897 5.12435C12.0371 5.18331 12.1734 5.21279 12.3061 5.21279C12.4535 5.21279 12.5935 5.18331 12.7262 5.12435C12.8589 5.06538 12.9694 4.98062 13.0579 4.87006C13.1463 4.75213 13.1906 4.60841 13.1906 4.43888C13.1906 4.29884 13.15 4.17354 13.0689 4.06298C12.9952 3.95242 12.892 3.86766 12.7594 3.8087C12.6267 3.74236 12.4756 3.70919 12.3061 3.70919C12.1439 3.70919 11.9965 3.74236 11.8638 3.8087C11.7312 3.86766 11.6243 3.95242 11.5432 4.06298C11.4695 4.17354 11.4327 4.29884 11.4327 4.43888Z" fill="#F3F7FF"/>
<path d="M73.3093 7.64257C73.3093 7.11631 73.415 6.60553 73.6266 6.11023C73.8381 5.60976 74.0935 5.10672 74.3928 4.60109L74.7952 4.79457C74.692 4.94936 74.5811 5.14025 74.4624 5.36727C74.3489 5.59428 74.2405 5.83936 74.1374 6.10249C74.0393 6.36046 73.9594 6.62359 73.8974 6.89188C73.8355 7.16017 73.8046 7.41814 73.8046 7.66579C73.8046 8.06823 73.8923 8.50678 74.0677 8.98144C74.2431 9.45611 74.483 9.9282 74.7874 10.3977L74.3928 10.6067C74.1761 10.2816 73.9852 9.95399 73.8201 9.62379C73.6601 9.29359 73.5337 8.96338 73.4408 8.63318C73.3531 8.29782 73.3093 7.96762 73.3093 7.64257ZM78.0344 9.84049V10.3203H75.4728V9.84049H76.5176V5.34405C76.4711 5.40596 76.4015 5.47562 76.3086 5.55301C76.2209 5.62524 76.1177 5.69747 75.999 5.7697C75.8804 5.83678 75.7591 5.89353 75.6353 5.93996C75.5115 5.9864 75.398 6.00962 75.2948 6.00962V5.51431C75.4341 5.51431 75.5734 5.4782 75.7127 5.40596C75.852 5.32857 75.981 5.24344 76.0997 5.15057C76.2235 5.05254 76.3215 4.96483 76.3937 4.88744C76.4711 4.80489 76.5124 4.76104 76.5176 4.75588H77.0516V9.84049H78.0344ZM80.186 10.3977C79.7939 10.3977 79.4405 10.3023 79.1258 10.1114C78.8162 9.9153 78.5815 9.65733 78.4215 9.33744L78.7775 9.07431C78.9168 9.32712 79.1129 9.53092 79.3657 9.6857C79.6185 9.84049 79.8945 9.91788 80.1938 9.91788C80.4517 9.91788 80.6813 9.86112 80.8826 9.74762C81.0889 9.63411 81.2515 9.47933 81.3701 9.28327C81.4939 9.08205 81.5559 8.84988 81.5559 8.58675C81.5559 8.33394 81.4965 8.11208 81.3779 7.92118C81.2592 7.72512 81.1018 7.57292 80.9058 7.46457C80.7097 7.35107 80.4879 7.29431 80.2402 7.29431C80.0029 7.29431 79.7759 7.34849 79.5592 7.45683C79.3425 7.56518 79.167 7.71738 79.0329 7.91344H78.5376L79.1567 4.82553H81.8113V5.31309H79.5514L79.1645 7.28657C79.2986 7.14211 79.4637 7.03118 79.6598 6.95379C79.861 6.87124 80.0751 6.82996 80.3021 6.82996C80.6375 6.82996 80.9393 6.90478 81.2076 7.0544C81.481 7.20402 81.6952 7.4104 81.8499 7.67353C82.0099 7.9315 82.0899 8.23333 82.0899 8.57901C82.0899 8.93501 82.0047 9.25231 81.8345 9.53092C81.6642 9.80437 81.4346 10.0185 81.1457 10.1733C80.8619 10.3229 80.542 10.3977 80.186 10.3977ZM82.6754 6.67518C82.6754 6.32434 82.7606 6.00704 82.9308 5.72327C83.1011 5.43434 83.3333 5.20733 83.6273 5.04222C83.9266 4.87196 84.2568 4.78683 84.618 4.78683C85.0101 4.78683 85.3532 4.8797 85.6473 5.06544C85.9413 5.24602 86.1709 5.50657 86.336 5.84709C86.5063 6.18762 86.5914 6.59779 86.5914 7.07762C86.5914 7.82573 86.5063 8.44486 86.336 8.93501C86.1709 9.42515 85.9362 9.79147 85.6318 10.034C85.3274 10.2765 84.9714 10.3977 84.5638 10.3977C84.2026 10.3977 83.8776 10.3074 83.5887 10.1268C83.2997 9.9411 83.0804 9.68828 82.9308 9.3684L83.2636 9.06657C83.3771 9.32454 83.55 9.5335 83.7821 9.69344C84.0195 9.84823 84.2826 9.92562 84.5715 9.92562C84.8759 9.92562 85.1416 9.83275 85.3687 9.64701C85.5957 9.45611 85.7711 9.18266 85.8949 8.82666C86.0239 8.47066 86.0884 8.03985 86.0884 7.53423C86.0162 7.73028 85.9027 7.9057 85.7479 8.06049C85.5982 8.21011 85.4202 8.3262 85.2139 8.40875C85.0127 8.4913 84.796 8.53257 84.5638 8.53257C84.2129 8.53257 83.8931 8.45002 83.6041 8.28492C83.3204 8.11982 83.0933 7.89538 82.9231 7.61162C82.758 7.32785 82.6754 7.0157 82.6754 6.67518ZM84.6102 5.24344C84.3522 5.24344 84.1149 5.30794 83.8982 5.43692C83.6815 5.56591 83.5087 5.73875 83.3797 5.95544C83.2507 6.17214 83.1862 6.40947 83.1862 6.66744C83.1862 6.93057 83.2507 7.17049 83.3797 7.38718C83.5087 7.59872 83.6815 7.77156 83.8982 7.9057C84.1201 8.03469 84.36 8.09918 84.618 8.09918C84.8811 8.09918 85.121 8.03469 85.3377 7.9057C85.5544 7.77156 85.7272 7.59872 85.8562 7.38718C85.9904 7.17049 86.0574 6.93315 86.0574 6.67518C86.0574 6.41721 85.9904 6.17988 85.8562 5.96318C85.7221 5.74649 85.5467 5.57365 85.33 5.44466C85.1133 5.31051 84.8733 5.24344 84.6102 5.24344ZM88.5786 7.64257C88.5786 7.96762 88.5348 8.29782 88.4471 8.63318C88.3594 8.96338 88.233 9.29359 88.0679 9.62379C87.9028 9.95399 87.7119 10.2816 87.4952 10.6067L87.1082 10.3977C87.4126 9.9282 87.6525 9.45611 87.8279 8.98144C88.0034 8.50678 88.0911 8.06823 88.0911 7.66579C88.0911 7.41814 88.0601 7.16017 87.9982 6.89188C87.9363 6.62359 87.8537 6.36046 87.7506 6.10249C87.6474 5.83936 87.539 5.59428 87.4255 5.36727C87.312 5.14025 87.2011 4.94936 87.0927 4.79457L87.5029 4.60109C87.8021 5.10672 88.055 5.60976 88.2613 6.11023C88.4729 6.60553 88.5786 7.11631 88.5786 7.64257Z" fill="#F3F7FF"/>
</svg>
