<svg width="89" height="15" viewBox="0 0 89 15" fill="none" xmlns="http://www.w3.org/2000/svg">
<path d="M8.28312 0.386202C8.17517 0.151201 7.93607 0 7.67241 0C7.40876 0 7.16966 0.151201 7.06171 0.386202L5.17601 4.49096L0.59746 4.97464C0.335334 5.00233 0.114261 5.17777 0.0327873 5.42275C-0.0486862 5.66772 0.0246175 5.93661 0.220022 6.10954L3.63314 9.1301L2.68914 13.5338C2.6351 13.7859 2.73757 14.0455 2.95087 14.1969C3.16417 14.3483 3.44857 14.3633 3.67729 14.2352L7.67241 11.9972L11.6675 14.2352C11.8963 14.3633 12.1807 14.3483 12.394 14.1969C12.6073 14.0455 12.7097 13.7859 12.6557 13.5338L11.7117 9.1301L15.1248 6.10954C15.3202 5.93661 15.3935 5.66772 15.312 5.42275C15.2306 5.17777 15.0095 5.00233 14.7474 4.97464L10.1688 4.49096L8.28312 0.386202Z" fill="white"/>
<path d="M26.6972 0.386202C26.5892 0.151201 26.3501 0 26.0865 0C25.8228 0 25.5837 0.151201 25.4758 0.386202L23.5901 4.49096L19.0115 4.97464C18.7494 5.00233 18.5283 5.17777 18.4468 5.42275C18.3654 5.66772 18.4387 5.93661 18.6341 6.10954L22.0472 9.1301L21.1032 13.5338C21.0492 13.7859 21.1516 14.0455 21.3649 14.1969C21.5782 14.3483 21.8626 14.3633 22.0914 14.2352L26.0865 11.9972L30.0816 14.2352C30.3103 14.3633 30.5947 14.3483 30.808 14.1969C31.0213 14.0455 31.1238 13.7859 31.0697 13.5338L30.1257 9.1301L33.5389 6.10954C33.7343 5.93661 33.8076 5.66772 33.7261 5.42275C33.6446 5.17777 33.4236 5.00233 33.1614 4.97464L28.5829 4.49096L26.6972 0.386202Z" fill="white"/>
<path d="M45.1112 0.386202C45.0033 0.151201 44.7642 0 44.5005 0C44.2369 0 43.9978 0.151201 43.8898 0.386202L42.0041 4.49096L37.4256 4.97464C37.1635 5.00233 36.9424 5.17777 36.8609 5.42275C36.7794 5.66772 36.8527 5.93661 37.0481 6.10954L40.4613 9.1301L39.5173 13.5338C39.4632 13.7859 39.5657 14.0455 39.779 14.1969C39.9923 14.3483 40.2767 14.3633 40.5054 14.2352L44.5005 11.9972L48.4957 14.2352C48.7244 14.3633 49.0088 14.3483 49.2221 14.1969C49.4354 14.0455 49.5379 13.7859 49.4838 13.5338L48.5398 9.1301L51.9529 6.10954C52.1483 5.93661 52.2216 5.66772 52.1402 5.42275C52.0587 5.17777 51.8376 5.00233 51.5755 4.97464L46.9969 4.49096L45.1112 0.386202Z" fill="white"/>
<path d="M63.5253 0.386202C63.4174 0.151201 63.1783 0 62.9146 0C62.6509 0 62.4119 0.151201 62.3039 0.386202L60.4182 4.49096L55.8396 4.97464C55.5775 5.00233 55.3564 5.17777 55.275 5.42275C55.1935 5.66772 55.2668 5.93661 55.4622 6.10954L58.8753 9.1301L57.9313 13.5338C57.8773 13.7859 57.9798 14.0455 58.1931 14.1969C58.4064 14.3483 58.6908 14.3633 58.9195 14.2352L62.9146 11.9972L66.9097 14.2352C67.1385 14.3633 67.4229 14.3483 67.6362 14.1969C67.8495 14.0455 67.9519 13.7859 67.8979 13.5338L66.9539 9.1301L70.367 6.10954C70.5624 5.93661 70.6357 5.66772 70.5542 5.42275C70.4728 5.17777 70.2517 5.00233 69.9896 4.97464L65.411 4.49096L63.5253 0.386202Z" fill="white"/>
<path d="M81.9394 0.386202C81.8314 0.151201 81.5923 0 81.3287 0C81.065 0 80.8259 0.151201 80.718 0.386202L78.8323 4.49096L74.2537 4.97464C73.9916 5.00233 73.7705 5.17777 73.689 5.42275C73.6076 5.66772 73.6809 5.93661 73.8763 6.10954L77.2894 9.1301L76.3454 13.5338C76.2913 13.7859 76.3938 14.0455 76.6071 14.1969C76.8204 14.3483 77.1048 14.3633 77.3335 14.2352L81.3287 11.9972L85.3238 14.2352C85.5525 14.3633 85.8369 14.3483 86.0502 14.1969C86.2635 14.0455 86.366 13.7859 86.3119 13.5338L85.3679 9.1301L88.7811 6.10954C88.9765 5.93661 89.0498 5.66772 88.9683 5.42275C88.8868 5.17777 88.6657 5.00233 88.4036 4.97464L83.8251 4.49096L81.9394 0.386202Z" fill="white"/>
</svg>
