<svg width="7" height="13" viewBox="0 0 7 13" fill="none" xmlns="http://www.w3.org/2000/svg">
<g clip-path="url(#clip0_2552_5575)">
<path d="M0.246575 0.26C0.410959 0.0866671 0.609589 0 0.842466 0C1.07534 0 1.26941 0.0866671 1.42466 0.26L6.75342 5.87889C6.91781 6.05222 7 6.25926 7 6.5C7 6.74074 6.91781 6.94778 6.75342 7.12111L1.42466 12.74C1.26941 12.9133 1.07534 13 0.842466 13C0.609589 13 0.410959 12.9133 0.246575 12.74C0.0821918 12.5667 0 12.3596 0 12.1189C0 11.8781 0.0821918 11.6711 0.246575 11.4978L4.9863 6.5L0.246575 1.50222C0.0821918 1.32889 0 1.12185 0 0.881111C0 0.64037 0.0821918 0.433333 0.246575 0.26Z" fill="#263238"/>
</g>
<defs>
<clipPath id="clip0_2552_5575">
<rect width="7" height="13" fill="white" transform="matrix(1 0 0 -1 0 13)"/>
</clipPath>
</defs>
</svg>
