<svg width="60" height="60" viewBox="0 0 60 60" fill="none" xmlns="http://www.w3.org/2000/svg">
<g clip-path="url(#clip0_1136_2237)">
<path d="M8.48554 47.4792C9.5023 47.48 10.4964 47.1791 11.3422 46.6148C12.188 46.0505 12.8473 45.248 13.237 44.3088C13.6266 43.3697 13.7289 42.3361 13.531 41.3388C13.3331 40.3414 12.8438 39.4252 12.1251 38.706C11.4065 37.9868 10.4906 37.4969 9.49343 37.2983C8.49627 37.0996 7.4626 37.2012 6.52317 37.5901C5.58374 37.979 4.78076 38.6378 4.2158 39.4832C3.65084 40.3285 3.34929 41.3225 3.34929 42.3392C3.34995 43.7016 3.89118 45.008 4.85417 45.9717C5.81715 46.9354 7.12318 47.4776 8.48554 47.4792ZM8.48554 39.0742C9.13146 39.0735 9.76308 39.2643 10.3005 39.6226C10.8379 39.981 11.257 40.4906 11.5047 41.0872C11.7524 41.6837 11.8176 42.3403 11.692 42.9739C11.5665 43.6075 11.2558 44.1896 10.7993 44.6466C10.3429 45.1036 9.76109 45.4149 9.12764 45.5412C8.49419 45.6675 7.83752 45.6031 7.2407 45.356C6.64388 45.109 6.13374 44.6906 5.77481 44.1535C5.41588 43.6165 5.22429 42.9851 5.22429 42.3392C5.22462 41.474 5.5682 40.6443 6.17963 40.0322C6.79105 39.4201 7.62037 39.0755 8.48554 39.0742ZM35.5718 47.4792C36.5886 47.4802 37.5829 47.1796 38.4288 46.6154C39.2747 46.0512 39.9343 45.2488 40.3241 44.3097C40.7139 43.3706 40.8164 42.3369 40.6186 41.3395C40.4209 40.3421 39.9317 39.4258 39.2131 38.7065C38.4945 37.9871 37.5786 37.4971 36.5814 37.2984C35.5842 37.0996 34.5505 37.2011 33.611 37.59C32.6715 37.9789 31.8684 38.6377 31.3034 39.4831C30.7384 40.3284 30.4368 41.3224 30.4368 42.3392C30.4378 43.7013 30.979 45.0073 31.9416 45.9709C32.9042 46.9345 34.2098 47.4769 35.5718 47.4792ZM35.5718 39.0742C36.2178 39.0732 36.8495 39.2639 37.3871 39.622C37.9247 39.9802 38.3439 40.4898 38.5918 41.0863C38.8397 41.6828 38.9051 42.3394 38.7797 42.9731C38.6543 43.6068 38.3437 44.189 37.8873 44.6462C37.4308 45.1033 36.8491 45.4147 36.2156 45.5411C35.5821 45.6675 34.9254 45.6031 34.3285 45.3562C33.7316 45.1092 33.2214 44.6907 32.8624 44.1537C32.5034 43.6166 32.3118 42.9852 32.3118 42.3392C32.3125 41.4744 32.656 40.645 33.2671 40.033C33.8781 39.421 34.7069 39.0762 35.5718 39.0742Z" fill="#2B5CAB"/>
<path d="M1.72352 43.2775H4.28727C4.53591 43.2775 4.77436 43.1787 4.95018 43.0029C5.126 42.8271 5.22477 42.5886 5.22477 42.34C5.22477 42.0914 5.126 41.8529 4.95018 41.6771C4.77436 41.5013 4.53591 41.4025 4.28727 41.4025H1.98852V36.4312C1.98912 35.7591 2.16122 35.0983 2.48852 34.5112L7.56351 25.4125C7.60687 25.3348 7.67015 25.2702 7.74684 25.2251C7.82352 25.1801 7.91084 25.1563 7.99977 25.1563H14.916V41.4062H12.6835C12.4349 41.4062 12.1964 41.505 12.0206 41.6808C11.8448 41.8567 11.746 42.0951 11.746 42.3438C11.746 42.5924 11.8448 42.8308 12.0206 43.0067C12.1964 43.1825 12.4349 43.2812 12.6835 43.2812H15.8535C16.1022 43.2812 16.3406 43.1825 16.5164 43.0067C16.6922 42.8308 16.791 42.5924 16.791 42.3438V24.2188C16.791 23.9701 16.6922 23.7317 16.5164 23.5558C16.3406 23.38 16.1022 23.2813 15.8535 23.2813H7.99977C7.57682 23.281 7.16149 23.3938 6.7967 23.6078C6.43191 23.8219 6.1309 24.1294 5.92477 24.4987L0.851017 33.5987C0.368652 34.4649 0.115242 35.4398 0.114765 36.4312V41.6687C0.115425 42.0952 0.285133 42.504 0.586693 42.8056C0.888248 43.1071 1.29705 43.2768 1.72352 43.2775ZM39.771 43.2775H48.7598C49.0084 43.2775 49.2469 43.1787 49.4227 43.0029C49.5985 42.8271 49.6973 42.5886 49.6973 42.34V35.13C49.6973 34.8814 49.5985 34.6429 49.4227 34.4671C49.2469 34.2913 49.0084 34.1925 48.7598 34.1925C48.5111 34.1925 48.2727 34.2913 48.0969 34.4671C47.921 34.6429 47.8223 34.8814 47.8223 35.13V41.4025H39.771C39.5224 41.4025 39.2839 41.5013 39.1081 41.6771C38.9323 41.8529 38.8335 42.0914 38.8335 42.34C38.8335 42.5886 38.9323 42.8271 39.1081 43.0029C39.2839 43.1787 39.5224 43.2775 39.771 43.2775ZM48.7598 31.8037C49.0084 31.8037 49.2469 31.705 49.4227 31.5292C49.5985 31.3533 49.6973 31.1149 49.6973 30.8662V24.5712C49.6973 24.3226 49.5985 24.0842 49.4227 23.9083C49.2469 23.7325 49.0084 23.6337 48.7598 23.6337C48.5111 23.6337 48.2727 23.7325 48.0969 23.9083C47.921 24.0842 47.8223 24.3226 47.8223 24.5712V30.87C47.8233 31.118 47.9225 31.3555 48.0982 31.5305C48.2739 31.7055 48.5118 31.8038 48.7598 31.8037Z" fill="#2B5CAB"/>
<path d="M15.8524 43.2763H31.3737C31.6223 43.2763 31.8608 43.1775 32.0366 43.0017C32.2124 42.8258 32.3112 42.5874 32.3112 42.3388C32.3112 42.0901 32.2124 41.8517 32.0366 41.6758C31.8608 41.5 31.6223 41.4013 31.3737 41.4013H16.7899V16.875H47.8212V20.7363C47.8212 20.9849 47.9199 21.2233 48.0958 21.3992C48.2716 21.575 48.51 21.6737 48.7587 21.6737C49.0073 21.6737 49.2458 21.575 49.4216 21.3992C49.5974 21.2233 49.6962 20.9849 49.6962 20.7363V16.7025C49.6955 16.251 49.5158 15.8181 49.1963 15.4989C48.8769 15.1798 48.444 15.0003 47.9924 15H16.6174C16.1661 15.0007 15.7334 15.1802 15.4143 15.4994C15.0952 15.8185 14.9156 16.2512 14.9149 16.7025V42.3388C14.9149 42.5874 15.0137 42.8258 15.1895 43.0017C15.3653 43.1775 15.6038 43.2763 15.8524 43.2763ZM45.0524 36.0663H56.9512C57.1998 36.0663 57.4383 35.9675 57.6141 35.7917C57.7899 35.6158 57.8887 35.3774 57.8887 35.1288C57.8887 34.8801 57.7899 34.6417 57.6141 34.4658C57.4383 34.29 57.1998 34.1913 56.9512 34.1913H45.0524C44.8038 34.1913 44.5653 34.29 44.3895 34.4658C44.2137 34.6417 44.1149 34.8801 44.1149 35.1288C44.1149 35.3774 44.2137 35.6158 44.3895 35.7917C44.5653 35.9675 44.8038 36.0663 45.0524 36.0663Z" fill="#2B5CAB"/>
<path d="M35.572 31.8006H52.1758C52.4244 31.8006 52.6629 31.7019 52.8387 31.526C53.0145 31.3502 53.1133 31.1118 53.1133 30.8631C53.1133 30.6145 53.0145 30.376 52.8387 30.2002C52.6629 30.0244 52.4244 29.9256 52.1758 29.9256H35.572C35.3234 29.9256 35.0849 30.0244 34.9091 30.2002C34.7333 30.376 34.6345 30.6145 34.6345 30.8631C34.6345 31.1118 34.7333 31.3502 34.9091 31.526C35.0849 31.7019 35.3234 31.8006 35.572 31.8006ZM52.692 26.8506H59.1758C59.4244 26.8506 59.6629 26.7519 59.8387 26.576C60.0145 26.4002 60.1133 26.1618 60.1133 25.9131C60.1133 25.6645 60.0145 25.426 59.8387 25.2502C59.6629 25.0744 59.4244 24.9756 59.1758 24.9756H52.692C52.4434 24.9756 52.2049 25.0744 52.0291 25.2502C51.8533 25.426 51.7545 25.6645 51.7545 25.9131C51.7545 26.1618 51.8533 26.4002 52.0291 26.576C52.2049 26.7519 52.4434 26.8506 52.692 26.8506ZM42.2958 21.6719H53.7408C53.9894 21.6719 54.2279 21.5731 54.4037 21.3973C54.5795 21.2215 54.6783 20.983 54.6783 20.7344C54.6783 20.4857 54.5795 20.2473 54.4037 20.0715C54.2279 19.8956 53.9894 19.7969 53.7408 19.7969H42.2958C42.0471 19.7969 41.8087 19.8956 41.6329 20.0715C41.4571 20.2473 41.3583 20.4857 41.3583 20.7344C41.3583 20.983 41.4571 21.2215 41.6329 21.3973C41.8087 21.5731 42.0471 21.6719 42.2958 21.6719Z" fill="#2B5CAB"/>
</g>
<defs>
<clipPath id="clip0_1136_2237">
<rect width="60" height="60" fill="white" transform="matrix(-1 0 0 1 60 0)"/>
</clipPath>
</defs>
</svg>
